%TF.GenerationSoftware,Altium Limited,Altium Designer,23.9.2 (47)*%
G04 Layer_Color=0*
%FSLAX45Y45*%
%MOMM*%
%TF.SameCoordinates,15915765-FD2E-4A0E-A91D-014651F65676*%
%TF.FilePolarity,Positive*%
%TF.FileFunction,Plated,1,4,PTH,Drill*%
%TF.Part,Single*%
G01*
G75*
%TA.AperFunction,ComponentDrill*%
%ADD81C,0.90000*%
%ADD82C,1.14300*%
%ADD83C,1.50000*%
%ADD84C,1.30000*%
%ADD85O,3.05000X0.85000*%
%ADD86O,0.85000X3.05000*%
%ADD87C,0.90000*%
%TA.AperFunction,ViaDrill,NotFilled*%
%ADD88C,0.30000*%
D81*
X1651000Y5930900D02*
D03*
Y6184900D02*
D03*
Y6692900D02*
D03*
Y6946900D02*
D03*
Y7200900D02*
D03*
Y7454900D02*
D03*
Y7708900D02*
D03*
Y7962900D02*
D03*
Y8216900D02*
D03*
Y6438900D02*
D03*
X1790700Y4864100D02*
D03*
Y4610100D02*
D03*
Y4356100D02*
D03*
Y4102100D02*
D03*
X2032000Y9563100D02*
D03*
X1778000D02*
D03*
X2032000Y9817100D02*
D03*
X1778000D02*
D03*
X2032000Y10071100D02*
D03*
X1778000D02*
D03*
D82*
X2166620Y5420360D02*
D03*
X1912620D02*
D03*
X1658620D02*
D03*
D83*
X8000000Y4320000D02*
D03*
Y4820000D02*
D03*
Y6154900D02*
D03*
Y6654900D02*
D03*
X8013700Y7966900D02*
D03*
Y8466900D02*
D03*
X8000000Y10235800D02*
D03*
Y9735800D02*
D03*
D84*
X6800000Y7004900D02*
D03*
X5580000Y5804900D02*
D03*
X6800000D02*
D03*
X7000000Y6404900D02*
D03*
X5580000Y7004900D02*
D03*
Y5170000D02*
D03*
X7000000Y4570000D02*
D03*
X6800000Y3970000D02*
D03*
X5580000D02*
D03*
X6800000Y5170000D02*
D03*
X5580000Y10585800D02*
D03*
X7000000Y9985800D02*
D03*
X6800000Y9385800D02*
D03*
X5580000D02*
D03*
X6800000Y10585800D02*
D03*
X5592700Y8852500D02*
D03*
X7012700Y8252500D02*
D03*
X6812700Y7652500D02*
D03*
X5592700D02*
D03*
X6812700Y8852500D02*
D03*
D85*
X2939200Y4519100D02*
D03*
Y3939100D02*
D03*
D86*
X3419200Y4229100D02*
D03*
D87*
X2743200Y10972800D02*
D03*
Y10718800D02*
D03*
X2489200Y10972800D02*
D03*
Y10718800D02*
D03*
X4635500Y10972800D02*
D03*
Y10718800D02*
D03*
X4381500Y10972800D02*
D03*
Y10718800D02*
D03*
X4127500Y10972800D02*
D03*
Y10718800D02*
D03*
X3873500Y10972800D02*
D03*
Y10718800D02*
D03*
X3619500Y10972800D02*
D03*
Y10718800D02*
D03*
X3365500Y10972800D02*
D03*
Y10718800D02*
D03*
D88*
X2247900Y8255000D02*
D03*
X2806700Y7251700D02*
D03*
X4813300Y6781800D02*
D03*
X4800600Y7213600D02*
D03*
X4584700Y7010400D02*
D03*
X3517900Y4699000D02*
D03*
X3136900Y5918200D02*
D03*
X4648200Y4813300D02*
D03*
X4914900Y5346700D02*
D03*
X5080000Y5435600D02*
D03*
X4254500Y4470400D02*
D03*
X3721100Y8470900D02*
D03*
X5029200Y8559800D02*
D03*
X4356100Y4064000D02*
D03*
X7366000Y7416800D02*
D03*
X4178300Y6375400D02*
D03*
X4876800Y4584700D02*
D03*
X8191500Y9258300D02*
D03*
X4699000Y9230200D02*
D03*
X4991100Y8039100D02*
D03*
X7416800Y5676900D02*
D03*
X4813300Y6388100D02*
D03*
X4495800Y6426200D02*
D03*
X2997200Y8851900D02*
D03*
X2590800Y8559800D02*
D03*
X2997200Y9055100D02*
D03*
X3878325Y10295000D02*
D03*
X4432300Y10134600D02*
D03*
X2247900Y9067800D02*
D03*
Y8712200D02*
D03*
X3098800Y10363200D02*
D03*
X4960620Y10053320D02*
D03*
X3987800Y5613400D02*
D03*
X3225800Y9969500D02*
D03*
X2800350Y9653270D02*
D03*
X2565400Y9652000D02*
D03*
X2349500Y9944100D02*
D03*
X8262700Y7269400D02*
D03*
X5110480Y7124700D02*
D03*
X4953000Y7162800D02*
D03*
X4737100Y7645400D02*
D03*
X4191800Y7264400D02*
D03*
X3683000Y7239000D02*
D03*
X8200000Y5355200D02*
D03*
X5092700Y6743700D02*
D03*
X4927600Y5816600D02*
D03*
%TF.MD5,ad6221877a432316364cd6f920e5927a*%
M02*
