%TF.GenerationSoftware,Altium Limited,Altium Designer,23.9.2 (47)*%
G04 Layer_Physical_Order=3*
G04 Layer_Color=128*
%FSLAX45Y45*%
%MOMM*%
%TF.SameCoordinates,15915765-FD2E-4A0E-A91D-014651F65676*%
%TF.FilePolarity,Negative*%
%TF.FileFunction,Copper,L3,Inr,Plane*%
%TF.Part,Single*%
G01*
G75*
%TA.AperFunction,NonConductor*%
%ADD40C,1.01600*%
%TA.AperFunction,ComponentPad*%
%ADD41C,1.91600*%
%ADD43C,2.15900*%
G04:AMPARAMS|DCode=44|XSize=2.667mm|YSize=2.667mm|CornerRadius=0mm|HoleSize=0mm|Usage=FLASHONLY|Rotation=0.000|XOffset=0mm|YOffset=0mm|HoleType=Round|Shape=Relief|Width=0.254mm|Gap=0.254mm|Entries=4|*
%AMTHD44*
7,0,0,2.66700,2.15900,0.25400,45*
%
%ADD44THD44*%
%ADD45C,2.51600*%
%ADD46C,2.31600*%
%ADD47O,4.06600X1.86600*%
%AMTHOVALD48*
21,1,2.20000,2.37400,0,0,180.0*
1,1,2.37400,1.10000,0.00000*
1,1,2.37400,-1.10000,0.00000*
21,0,2.20000,1.86600,0,0,180.0*
1,0,1.86600,1.10000,0.00000*
1,0,1.86600,-1.10000,0.00000*
4,0,4,1.01020,0.08980,1.84953,0.92914,2.02914,0.74953,1.18980,-0.08980,1.01020,0.08980,0.0*
4,0,4,-1.18980,0.08980,-2.02914,-0.74953,-1.84953,-0.92914,-1.01020,-0.08980,-1.18980,0.08980,0.0*
4,0,4,1.18980,0.08980,2.02914,-0.74953,1.84953,-0.92914,1.01020,-0.08980,1.18980,0.08980,0.0*
4,0,4,-1.01020,0.08980,-1.84953,0.92914,-2.02914,0.74953,-1.18980,-0.08980,-1.01020,0.08980,0.0*
%
%ADD48THOVALD48*%

%TA.AperFunction,ViaPad*%
%ADD50C,1.31600*%
G04:AMPARAMS|DCode=51|XSize=1.824mm|YSize=1.824mm|CornerRadius=0mm|HoleSize=0mm|Usage=FLASHONLY|Rotation=0.000|XOffset=0mm|YOffset=0mm|HoleType=Round|Shape=Relief|Width=0.254mm|Gap=0.254mm|Entries=4|*
%AMTHD51*
7,0,0,1.82400,1.31600,0.25400,45*
%
%ADD51THD51*%
%TA.AperFunction,ComponentPad*%
G04:AMPARAMS|DCode=52|XSize=2.824mm|YSize=2.824mm|CornerRadius=0mm|HoleSize=0mm|Usage=FLASHONLY|Rotation=0.000|XOffset=0mm|YOffset=0mm|HoleType=Round|Shape=Relief|Width=0.254mm|Gap=0.254mm|Entries=4|*
%AMTHD52*
7,0,0,2.82400,2.31600,0.25400,45*
%
%ADD52THD52*%
%ADD53O,1.86600X4.06600*%
G36*
X8436984Y11096121D02*
X8470498Y11082239D01*
X8500659Y11062087D01*
X8526309Y11036437D01*
X8546461Y11006276D01*
X8560343Y10972762D01*
X8567420Y10937185D01*
Y10919048D01*
Y10900911D01*
X8560343Y10865333D01*
X8546461Y10831820D01*
X8526309Y10801659D01*
X8500659Y10776009D01*
X8470498Y10755856D01*
X8436984Y10741975D01*
X8401407Y10734898D01*
X8365133D01*
X8329555Y10741975D01*
X8296042Y10755856D01*
X8265881Y10776009D01*
X8240231Y10801659D01*
X8220078Y10831820D01*
X8206197Y10865333D01*
X8199120Y10900911D01*
Y10919048D01*
Y10937185D01*
X8206197Y10972762D01*
X8220078Y11006276D01*
X8240231Y11036437D01*
X8265881Y11062087D01*
X8296042Y11082239D01*
X8329555Y11096121D01*
X8365133Y11103198D01*
X8401407D01*
X8436984Y11096121D01*
D02*
G37*
G36*
X1832984D02*
X1866498Y11082239D01*
X1896659Y11062087D01*
X1922309Y11036437D01*
X1942461Y11006276D01*
X1956343Y10972762D01*
X1963420Y10937185D01*
Y10919048D01*
Y10900911D01*
X1956343Y10865333D01*
X1942461Y10831820D01*
X1922309Y10801659D01*
X1896659Y10776009D01*
X1866498Y10755856D01*
X1832984Y10741975D01*
X1797407Y10734898D01*
X1761133D01*
X1725555Y10741975D01*
X1692042Y10755856D01*
X1661881Y10776009D01*
X1636231Y10801659D01*
X1616078Y10831820D01*
X1602197Y10865333D01*
X1595120Y10900911D01*
Y10919048D01*
Y10937185D01*
X1602197Y10972762D01*
X1616078Y11006276D01*
X1636231Y11036437D01*
X1661881Y11062087D01*
X1692042Y11082239D01*
X1725555Y11096121D01*
X1761133Y11103198D01*
X1797407D01*
X1832984Y11096121D01*
D02*
G37*
G36*
X8436984Y3730122D02*
X8470498Y3716240D01*
X8500659Y3696087D01*
X8526309Y3670437D01*
X8546461Y3640276D01*
X8560343Y3606763D01*
X8567420Y3571186D01*
Y3553049D01*
Y3534911D01*
X8560343Y3499334D01*
X8546461Y3465821D01*
X8526309Y3435660D01*
X8500659Y3410010D01*
X8470498Y3389857D01*
X8436984Y3375975D01*
X8401407Y3368899D01*
X8365133D01*
X8329555Y3375975D01*
X8296042Y3389857D01*
X8265881Y3410010D01*
X8240231Y3435660D01*
X8220078Y3465821D01*
X8206197Y3499334D01*
X8199120Y3534911D01*
Y3553049D01*
Y3571186D01*
X8206197Y3606763D01*
X8220078Y3640276D01*
X8240231Y3670437D01*
X8265881Y3696087D01*
X8296042Y3716240D01*
X8329555Y3730122D01*
X8365133Y3737199D01*
X8401407D01*
X8436984Y3730122D01*
D02*
G37*
G36*
X1832984D02*
X1866498Y3716240D01*
X1896659Y3696087D01*
X1922309Y3670437D01*
X1942461Y3640276D01*
X1956343Y3606763D01*
X1963420Y3571186D01*
Y3553049D01*
Y3534911D01*
X1956343Y3499334D01*
X1942461Y3465821D01*
X1922309Y3435660D01*
X1896659Y3410010D01*
X1866498Y3389857D01*
X1832984Y3375975D01*
X1797407Y3368899D01*
X1761133D01*
X1725555Y3375975D01*
X1692042Y3389857D01*
X1661881Y3410010D01*
X1636231Y3435660D01*
X1616078Y3465821D01*
X1602197Y3499334D01*
X1595120Y3534911D01*
Y3553049D01*
Y3571186D01*
X1602197Y3606763D01*
X1616078Y3640276D01*
X1636231Y3670437D01*
X1661881Y3696087D01*
X1692042Y3716240D01*
X1725555Y3730122D01*
X1761133Y3737199D01*
X1797407D01*
X1832984Y3730122D01*
D02*
G37*
D40*
X1271270Y3680049D02*
Y10792048D01*
Y3648853D02*
Y3680049D01*
Y3648853D02*
X1277385Y3586762D01*
X1289557Y3525570D01*
X1307668Y3465865D01*
X1331544Y3408224D01*
X1360955Y3353200D01*
X1395618Y3301323D01*
X1435199Y3253094D01*
X1479316Y3208977D01*
X1527545Y3169397D01*
X1579421Y3134734D01*
X1634445Y3105323D01*
X1692087Y3081447D01*
X1751791Y3063336D01*
X1812984Y3051164D01*
X1875074Y3045049D01*
X8287466D01*
X8349556Y3051164D01*
X8410748Y3063336D01*
X8470453Y3081447D01*
X8528095Y3105323D01*
X8583119Y3134734D01*
X8634995Y3169397D01*
X8683224Y3208977D01*
X8727341Y3253094D01*
X8766922Y3301323D01*
X8801584Y3353200D01*
X8830995Y3408224D01*
X8854871Y3465865D01*
X8872983Y3525570D01*
X8885154Y3586762D01*
X8891270Y3648853D01*
Y3680049D01*
Y10792048D01*
X1797407Y3737199D02*
X1832984Y3730122D01*
X1866498Y3716240D01*
X1896659Y3696087D01*
X1922309Y3670437D01*
X1942461Y3640276D01*
X1956343Y3606763D01*
X1963420Y3571186D01*
Y3553049D02*
Y3571186D01*
Y3534911D02*
Y3553049D01*
X1956343Y3499334D02*
X1963420Y3534911D01*
X1942461Y3465821D02*
X1956343Y3499334D01*
X1922309Y3435660D02*
X1942461Y3465821D01*
X1896659Y3410010D02*
X1922309Y3435660D01*
X1866498Y3389857D02*
X1896659Y3410010D01*
X1832984Y3375975D02*
X1866498Y3389857D01*
X1797407Y3368899D02*
X1832984Y3375975D01*
X1761133Y3368899D02*
X1797407D01*
X1725555Y3375975D02*
X1761133Y3368899D01*
X1692042Y3389857D02*
X1725555Y3375975D01*
X1661881Y3410010D02*
X1692042Y3389857D01*
X1636231Y3435660D02*
X1661881Y3410010D01*
X1616078Y3465821D02*
X1636231Y3435660D01*
X1602197Y3499334D02*
X1616078Y3465821D01*
X1595120Y3534911D02*
X1602197Y3499334D01*
X1595120Y3534911D02*
Y3553049D01*
Y3571186D01*
X1602197Y3606763D01*
X1616078Y3640276D01*
X1636231Y3670437D01*
X1661881Y3696087D01*
X1692042Y3716240D01*
X1725555Y3730122D01*
X1761133Y3737199D01*
X1797407D01*
X8401407D02*
X8436984Y3730122D01*
X8470498Y3716240D01*
X8500659Y3696087D01*
X8526309Y3670437D01*
X8546461Y3640276D01*
X8560343Y3606763D01*
X8567420Y3571186D01*
Y3553049D02*
Y3571186D01*
Y3534911D02*
Y3553049D01*
X8560343Y3499334D02*
X8567420Y3534911D01*
X8546461Y3465821D02*
X8560343Y3499334D01*
X8526309Y3435660D02*
X8546461Y3465821D01*
X8500659Y3410010D02*
X8526309Y3435660D01*
X8470498Y3389857D02*
X8500659Y3410010D01*
X8436984Y3375975D02*
X8470498Y3389857D01*
X8401407Y3368899D02*
X8436984Y3375975D01*
X8365133Y3368899D02*
X8401407D01*
X8329555Y3375975D02*
X8365133Y3368899D01*
X8296042Y3389857D02*
X8329555Y3375975D01*
X8265881Y3410010D02*
X8296042Y3389857D01*
X8240231Y3435660D02*
X8265881Y3410010D01*
X8220078Y3465821D02*
X8240231Y3435660D01*
X8206197Y3499334D02*
X8220078Y3465821D01*
X8199120Y3534911D02*
X8206197Y3499334D01*
X8199120Y3534911D02*
Y3553049D01*
Y3571186D01*
X8206197Y3606763D01*
X8220078Y3640276D01*
X8240231Y3670437D01*
X8265881Y3696087D01*
X8296042Y3716240D01*
X8329555Y3730122D01*
X8365133Y3737199D01*
X8401407D01*
X1875074Y11427048D02*
X8287466D01*
X1812984Y11420932D02*
X1875074Y11427048D01*
X1751791Y11408761D02*
X1812984Y11420932D01*
X1692087Y11390649D02*
X1751791Y11408761D01*
X1634445Y11366773D02*
X1692087Y11390649D01*
X1579421Y11337362D02*
X1634445Y11366773D01*
X1527545Y11302700D02*
X1579421Y11337362D01*
X1479316Y11263119D02*
X1527545Y11302700D01*
X1435199Y11219002D02*
X1479316Y11263119D01*
X1395618Y11170773D02*
X1435199Y11219002D01*
X1360955Y11118897D02*
X1395618Y11170773D01*
X1331544Y11063873D02*
X1360955Y11118897D01*
X1307668Y11006231D02*
X1331544Y11063873D01*
X1289557Y10946526D02*
X1307668Y11006231D01*
X1277385Y10885334D02*
X1289557Y10946526D01*
X1271270Y10823244D02*
X1277385Y10885334D01*
X1271270Y10792048D02*
Y10823244D01*
X1797407Y11103198D02*
X1832984Y11096121D01*
X1866498Y11082239D01*
X1896659Y11062087D01*
X1922309Y11036437D01*
X1942461Y11006276D01*
X1956343Y10972762D01*
X1963420Y10937185D01*
Y10919048D02*
Y10937185D01*
Y10900911D02*
Y10919048D01*
X1956343Y10865333D02*
X1963420Y10900911D01*
X1942461Y10831820D02*
X1956343Y10865333D01*
X1922309Y10801659D02*
X1942461Y10831820D01*
X1896659Y10776009D02*
X1922309Y10801659D01*
X1866498Y10755856D02*
X1896659Y10776009D01*
X1832984Y10741975D02*
X1866498Y10755856D01*
X1797407Y10734898D02*
X1832984Y10741975D01*
X1761133Y10734898D02*
X1797407D01*
X1725555Y10741975D02*
X1761133Y10734898D01*
X1692042Y10755856D02*
X1725555Y10741975D01*
X1661881Y10776009D02*
X1692042Y10755856D01*
X1636231Y10801659D02*
X1661881Y10776009D01*
X1616078Y10831820D02*
X1636231Y10801659D01*
X1602197Y10865333D02*
X1616078Y10831820D01*
X1595120Y10900911D02*
X1602197Y10865333D01*
X1595120Y10900911D02*
Y10919048D01*
Y10937185D01*
X1602197Y10972762D01*
X1616078Y11006276D01*
X1636231Y11036437D01*
X1661881Y11062087D01*
X1692042Y11082239D01*
X1725555Y11096121D01*
X1761133Y11103198D01*
X1797407D01*
X8401407D02*
X8436984Y11096121D01*
X8470498Y11082239D01*
X8500659Y11062087D01*
X8526309Y11036437D01*
X8546461Y11006276D01*
X8560343Y10972762D01*
X8567420Y10937185D01*
Y10919048D02*
Y10937185D01*
Y10900911D02*
Y10919048D01*
X8560343Y10865333D02*
X8567420Y10900911D01*
X8546461Y10831820D02*
X8560343Y10865333D01*
X8526309Y10801659D02*
X8546461Y10831820D01*
X8500659Y10776009D02*
X8526309Y10801659D01*
X8470498Y10755856D02*
X8500659Y10776009D01*
X8436984Y10741975D02*
X8470498Y10755856D01*
X8401407Y10734898D02*
X8436984Y10741975D01*
X8365133Y10734898D02*
X8401407D01*
X8329555Y10741975D02*
X8365133Y10734898D01*
X8296042Y10755856D02*
X8329555Y10741975D01*
X8265881Y10776009D02*
X8296042Y10755856D01*
X8240231Y10801659D02*
X8265881Y10776009D01*
X8220078Y10831820D02*
X8240231Y10801659D01*
X8206197Y10865333D02*
X8220078Y10831820D01*
X8199120Y10900911D02*
X8206197Y10865333D01*
X8199120Y10900911D02*
Y10919048D01*
Y10937185D01*
X8206197Y10972762D01*
X8220078Y11006276D01*
X8240231Y11036437D01*
X8265881Y11062087D01*
X8296042Y11082239D01*
X8329555Y11096121D01*
X8365133Y11103198D01*
X8401407D01*
X8287466Y11427048D02*
X8349556Y11420932D01*
X8891270Y10792048D02*
Y10823244D01*
X8885154Y10885334D02*
X8891270Y10823244D01*
X8872983Y10946526D02*
X8885154Y10885334D01*
X8854871Y11006231D02*
X8872983Y10946526D01*
X8830995Y11063873D02*
X8854871Y11006231D01*
X8801584Y11118897D02*
X8830995Y11063873D01*
X8766922Y11170773D02*
X8801584Y11118897D01*
X8727341Y11219002D02*
X8766922Y11170773D01*
X8683224Y11263119D02*
X8727341Y11219002D01*
X8634995Y11302700D02*
X8683224Y11263119D01*
X8583119Y11337362D02*
X8634995Y11302700D01*
X8528095Y11366773D02*
X8583119Y11337362D01*
X8470453Y11390649D02*
X8528095Y11366773D01*
X8410748Y11408761D02*
X8470453Y11390649D01*
X8349556Y11420932D02*
X8410748Y11408761D01*
D41*
X1651000Y5930900D02*
D03*
Y6184900D02*
D03*
Y6692900D02*
D03*
Y6946900D02*
D03*
Y7200900D02*
D03*
Y7454900D02*
D03*
Y7708900D02*
D03*
Y7962900D02*
D03*
Y8216900D02*
D03*
Y6438900D02*
D03*
X1790700Y4864100D02*
D03*
Y4610100D02*
D03*
Y4356100D02*
D03*
Y4102100D02*
D03*
X2032000Y9563100D02*
D03*
X1778000D02*
D03*
X2032000Y9817100D02*
D03*
X1778000D02*
D03*
X2032000Y10071100D02*
D03*
X1778000D02*
D03*
X2743200Y10972800D02*
D03*
Y10718800D02*
D03*
X2489200Y10972800D02*
D03*
Y10718800D02*
D03*
X4635500Y10972800D02*
D03*
Y10718800D02*
D03*
X4381500Y10972800D02*
D03*
Y10718800D02*
D03*
X4127500Y10972800D02*
D03*
Y10718800D02*
D03*
X3873500Y10972800D02*
D03*
Y10718800D02*
D03*
X3619500Y10972800D02*
D03*
Y10718800D02*
D03*
X3365500Y10972800D02*
D03*
Y10718800D02*
D03*
D43*
X1912620Y5420360D02*
D03*
X1658620D02*
D03*
D44*
X2166620D02*
D03*
D45*
X8000000Y4320000D02*
D03*
Y4820000D02*
D03*
Y6154900D02*
D03*
Y6654900D02*
D03*
X8013700Y7966900D02*
D03*
Y8466900D02*
D03*
X8000000Y10235800D02*
D03*
Y9735800D02*
D03*
D46*
X5580000Y5804900D02*
D03*
X6800000D02*
D03*
X7000000Y6404900D02*
D03*
X5580000Y7004900D02*
D03*
Y5170000D02*
D03*
X7000000Y4570000D02*
D03*
X6800000Y3970000D02*
D03*
X5580000D02*
D03*
Y10585800D02*
D03*
X7000000Y9985800D02*
D03*
X6800000Y9385800D02*
D03*
X5580000D02*
D03*
X5592700Y8852500D02*
D03*
X7012700Y8252500D02*
D03*
X6812700Y7652500D02*
D03*
X5592700D02*
D03*
D47*
X2939200Y3939100D02*
D03*
D48*
Y4519100D02*
D03*
D50*
X2247900Y8255000D02*
D03*
X2806700Y7251700D02*
D03*
X4813300Y6781800D02*
D03*
X4584700Y7010400D02*
D03*
X3517900Y4699000D02*
D03*
X4648200Y4813300D02*
D03*
X4914900Y5346700D02*
D03*
X5080000Y5435600D02*
D03*
X4254500Y4470400D02*
D03*
X3721100Y8470900D02*
D03*
X5029200Y8559800D02*
D03*
X7366000Y7416800D02*
D03*
X4178300Y6375400D02*
D03*
X4876800Y4584700D02*
D03*
X8191500Y9258300D02*
D03*
X4699000Y9230200D02*
D03*
X4991100Y8039100D02*
D03*
X7416800Y5676900D02*
D03*
X4813300Y6388100D02*
D03*
X4495800Y6426200D02*
D03*
X2997200Y8851900D02*
D03*
X2590800Y8559800D02*
D03*
X2997200Y9055100D02*
D03*
X3878325Y10295000D02*
D03*
X4432300Y10134600D02*
D03*
X2247900Y9067800D02*
D03*
Y8712200D02*
D03*
X3098800Y10363200D02*
D03*
X4960620Y10053320D02*
D03*
X3987800Y5613400D02*
D03*
X3225800Y9969500D02*
D03*
X2800350Y9653270D02*
D03*
X8262700Y7269400D02*
D03*
X5110480Y7124700D02*
D03*
X4953000Y7162800D02*
D03*
X4191800Y7264400D02*
D03*
X8200000Y5355200D02*
D03*
D51*
X4800600Y7213600D02*
D03*
X3136900Y5918200D02*
D03*
X4356100Y4064000D02*
D03*
X2565400Y9652000D02*
D03*
X2349500Y9944100D02*
D03*
X4737100Y7645400D02*
D03*
X3683000Y7239000D02*
D03*
X5092700Y6743700D02*
D03*
X4927600Y5816600D02*
D03*
D52*
X6800000Y7004900D02*
D03*
Y5170000D02*
D03*
Y10585800D02*
D03*
X6812700Y8852500D02*
D03*
D53*
X3419200Y4229100D02*
D03*
%TF.MD5,7a07a49878a70dec39eb694154f3e926*%
M02*
