%TF.GenerationSoftware,Altium Limited,Altium Designer,23.9.2 (47)*%
G04 Layer_Physical_Order=1*
G04 Layer_Color=255*
%FSLAX45Y45*%
%MOMM*%
%TF.SameCoordinates,15915765-FD2E-4A0E-A91D-014651F65676*%
%TF.FilePolarity,Positive*%
%TF.FileFunction,Copper,L1,Top,Signal*%
%TF.Part,Single*%
G01*
G75*
%TA.AperFunction,SMDPad,CuDef*%
G04:AMPARAMS|DCode=10|XSize=1mm|YSize=1.7mm|CornerRadius=0.125mm|HoleSize=0mm|Usage=FLASHONLY|Rotation=180.000|XOffset=0mm|YOffset=0mm|HoleType=Round|Shape=RoundedRectangle|*
%AMROUNDEDRECTD10*
21,1,1.00000,1.45000,0,0,180.0*
21,1,0.75000,1.70000,0,0,180.0*
1,1,0.25000,-0.37500,0.72500*
1,1,0.25000,0.37500,0.72500*
1,1,0.25000,0.37500,-0.72500*
1,1,0.25000,-0.37500,-0.72500*
%
%ADD10ROUNDEDRECTD10*%
%ADD11R,0.90170X0.50800*%
%ADD12R,0.42000X0.60000*%
G04:AMPARAMS|DCode=13|XSize=0.6mm|YSize=0.7mm|CornerRadius=0.075mm|HoleSize=0mm|Usage=FLASHONLY|Rotation=0.000|XOffset=0mm|YOffset=0mm|HoleType=Round|Shape=RoundedRectangle|*
%AMROUNDEDRECTD13*
21,1,0.60000,0.55000,0,0,0.0*
21,1,0.45000,0.70000,0,0,0.0*
1,1,0.15000,0.22500,-0.27500*
1,1,0.15000,-0.22500,-0.27500*
1,1,0.15000,-0.22500,0.27500*
1,1,0.15000,0.22500,0.27500*
%
%ADD13ROUNDEDRECTD13*%
%ADD14R,0.70000X0.60000*%
%ADD15R,1.09220X3.40360*%
%ADD16R,1.78000X1.52000*%
G04:AMPARAMS|DCode=17|XSize=0.6mm|YSize=0.7mm|CornerRadius=0.075mm|HoleSize=0mm|Usage=FLASHONLY|Rotation=90.000|XOffset=0mm|YOffset=0mm|HoleType=Round|Shape=RoundedRectangle|*
%AMROUNDEDRECTD17*
21,1,0.60000,0.55000,0,0,90.0*
21,1,0.45000,0.70000,0,0,90.0*
1,1,0.15000,0.27500,0.22500*
1,1,0.15000,0.27500,-0.22500*
1,1,0.15000,-0.27500,-0.22500*
1,1,0.15000,-0.27500,0.22500*
%
%ADD17ROUNDEDRECTD17*%
%ADD18R,1.52000X1.78000*%
%ADD19R,0.60000X0.42000*%
G04:AMPARAMS|DCode=20|XSize=1.4mm|YSize=1.7mm|CornerRadius=0.175mm|HoleSize=0mm|Usage=FLASHONLY|Rotation=90.000|XOffset=0mm|YOffset=0mm|HoleType=Round|Shape=RoundedRectangle|*
%AMROUNDEDRECTD20*
21,1,1.40000,1.35000,0,0,90.0*
21,1,1.05000,1.70000,0,0,90.0*
1,1,0.35000,0.67500,0.52500*
1,1,0.35000,0.67500,-0.52500*
1,1,0.35000,-0.67500,-0.52500*
1,1,0.35000,-0.67500,0.52500*
%
%ADD20ROUNDEDRECTD20*%
G04:AMPARAMS|DCode=21|XSize=0.8mm|YSize=1mm|CornerRadius=0.1mm|HoleSize=0mm|Usage=FLASHONLY|Rotation=0.000|XOffset=0mm|YOffset=0mm|HoleType=Round|Shape=RoundedRectangle|*
%AMROUNDEDRECTD21*
21,1,0.80000,0.80000,0,0,0.0*
21,1,0.60000,1.00000,0,0,0.0*
1,1,0.20000,0.30000,-0.40000*
1,1,0.20000,-0.30000,-0.40000*
1,1,0.20000,-0.30000,0.40000*
1,1,0.20000,0.30000,0.40000*
%
%ADD21ROUNDEDRECTD21*%
%TA.AperFunction,Conductor*%
%ADD22C,0.25400*%
%ADD23C,0.27940*%
%ADD24C,0.38100*%
%ADD25C,0.63500*%
%ADD26C,0.30480*%
%ADD27C,0.33020*%
%ADD28C,0.50800*%
%ADD29C,0.35560*%
%ADD30C,0.20320*%
%TA.AperFunction,ComponentPad*%
%ADD31R,1.50000X1.50000*%
%ADD32C,1.50000*%
%ADD33C,1.65100*%
%ADD34C,2.00000*%
%ADD35C,1.75000*%
%ADD36O,3.50800X1.30800*%
%ADD37O,1.30800X3.50800*%
%ADD38R,1.50000X1.50000*%
%TA.AperFunction,ViaPad*%
%ADD39C,0.60000*%
G36*
X2641600Y9613900D02*
X2622241D01*
X2614844Y9626600D01*
X2620104Y9639300D01*
X2565400D01*
Y9652000D01*
X2552700D01*
Y9706704D01*
X2534019Y9698966D01*
X2524240Y9689188D01*
X2511540Y9694448D01*
Y9715500D01*
X2413000D01*
Y9631960D01*
X2467800D01*
X2484539Y9635289D01*
X2497300Y9643816D01*
X2504743Y9642154D01*
X2510563Y9639622D01*
X2515956Y9626600D01*
X2508559Y9613900D01*
X2260600D01*
Y10019802D01*
X2469515D01*
Y10001000D01*
X2610485D01*
Y10025380D01*
X2641600D01*
Y9613900D01*
D02*
G37*
G36*
X2222500Y10160000D02*
X2590800D01*
Y10134100D01*
X2552700D01*
Y10083300D01*
X2540000D01*
Y10070600D01*
X2469515D01*
Y10045700D01*
X2235200D01*
X2159000Y9969500D01*
Y9436100D01*
X1906270D01*
Y10198100D01*
X2184400D01*
X2222500Y10160000D01*
D02*
G37*
%LPC*%
G36*
X2362200Y9998804D02*
Y9956800D01*
X2404204D01*
X2396466Y9975481D01*
X2380881Y9991066D01*
X2362200Y9998804D01*
D02*
G37*
G36*
X2336800D02*
X2318119Y9991066D01*
X2302534Y9975481D01*
X2294796Y9956800D01*
X2336800D01*
Y9998804D01*
D02*
G37*
G36*
X2610485Y9975600D02*
X2469515D01*
Y9937500D01*
Y9906000D01*
X2610485D01*
Y9937500D01*
Y9975600D01*
D02*
G37*
G36*
X2404204Y9931400D02*
X2362200D01*
Y9889396D01*
X2380881Y9897134D01*
X2396466Y9912719D01*
X2404204Y9931400D01*
D02*
G37*
G36*
X2336800D02*
X2294796D01*
X2302534Y9912719D01*
X2318119Y9897134D01*
X2336800Y9889396D01*
Y9931400D01*
D02*
G37*
G36*
X2610485Y9880600D02*
X2552700D01*
Y9842500D01*
X2610485D01*
Y9880600D01*
D02*
G37*
G36*
X2527300D02*
X2469515D01*
Y9842500D01*
X2527300D01*
Y9880600D01*
D02*
G37*
G36*
X2467800Y9824440D02*
X2413000D01*
Y9740900D01*
X2511540D01*
Y9780700D01*
X2508211Y9797439D01*
X2498729Y9811629D01*
X2484539Y9821111D01*
X2467800Y9824440D01*
D02*
G37*
G36*
X2387600D02*
X2332800D01*
X2316061Y9821111D01*
X2301871Y9811629D01*
X2292389Y9797439D01*
X2289060Y9780700D01*
Y9740900D01*
X2387600D01*
Y9824440D01*
D02*
G37*
G36*
X2578100Y9706704D02*
Y9664700D01*
X2620104D01*
X2612366Y9683381D01*
X2596781Y9698966D01*
X2578100Y9706704D01*
D02*
G37*
G36*
X2387600Y9715500D02*
X2289060D01*
Y9675700D01*
X2292389Y9658961D01*
X2301871Y9644771D01*
X2316061Y9635289D01*
X2332800Y9631960D01*
X2387600D01*
Y9715500D01*
D02*
G37*
G36*
X2527300Y10134100D02*
X2469515D01*
Y10096000D01*
X2527300D01*
Y10134100D01*
D02*
G37*
G36*
X2045218Y10171500D02*
X2044700D01*
Y10083800D01*
X2132400D01*
Y10084318D01*
X2125558Y10109853D01*
X2112340Y10132747D01*
X2093647Y10151440D01*
X2070753Y10164658D01*
X2045218Y10171500D01*
D02*
G37*
G36*
X2019300D02*
X2018782D01*
X1993247Y10164658D01*
X1970353Y10151440D01*
X1951660Y10132747D01*
X1938442Y10109853D01*
X1931600Y10084318D01*
Y10083800D01*
X2019300D01*
Y10171500D01*
D02*
G37*
G36*
X2132400Y10058400D02*
X2044700D01*
Y9970700D01*
X2045218D01*
X2070753Y9977542D01*
X2093647Y9990760D01*
X2112340Y10009453D01*
X2125558Y10032347D01*
X2132400Y10057882D01*
Y10058400D01*
D02*
G37*
G36*
X2019300D02*
X1931600D01*
Y10057882D01*
X1938442Y10032347D01*
X1951660Y10009453D01*
X1970353Y9990760D01*
X1993247Y9977542D01*
X2018782Y9970700D01*
X2019300D01*
Y10058400D01*
D02*
G37*
G36*
X2045218Y9917500D02*
X2044700D01*
Y9829800D01*
X2132400D01*
Y9830318D01*
X2125558Y9855853D01*
X2112340Y9878747D01*
X2093647Y9897440D01*
X2070753Y9910658D01*
X2045218Y9917500D01*
D02*
G37*
G36*
X2019300D02*
X2018782D01*
X1993247Y9910658D01*
X1970353Y9897440D01*
X1951660Y9878747D01*
X1938442Y9855853D01*
X1931600Y9830318D01*
Y9829800D01*
X2019300D01*
Y9917500D01*
D02*
G37*
G36*
X2132400Y9804400D02*
X2044700D01*
Y9716700D01*
X2045218D01*
X2070753Y9723542D01*
X2093647Y9736760D01*
X2112340Y9755453D01*
X2125558Y9778347D01*
X2132400Y9803882D01*
Y9804400D01*
D02*
G37*
G36*
X2019300D02*
X1931600D01*
Y9803882D01*
X1938442Y9778347D01*
X1951660Y9755453D01*
X1970353Y9736760D01*
X1993247Y9723542D01*
X2018782Y9716700D01*
X2019300D01*
Y9804400D01*
D02*
G37*
G36*
X2132400Y9663500D02*
X2044700D01*
Y9575800D01*
X2132400D01*
Y9663500D01*
D02*
G37*
G36*
X2019300D02*
X1931600D01*
Y9575800D01*
X2019300D01*
Y9663500D01*
D02*
G37*
G36*
X2132400Y9550400D02*
X2044700D01*
Y9462700D01*
X2132400D01*
Y9550400D01*
D02*
G37*
G36*
X2019300D02*
X1931600D01*
Y9462700D01*
X2019300D01*
Y9550400D01*
D02*
G37*
%LPD*%
D10*
X7652000Y9118600D02*
D03*
X7842000D02*
D03*
X7664700Y7404100D02*
D03*
X7854700D02*
D03*
X7620000Y5499100D02*
D03*
X7810000D02*
D03*
X3759200Y4914900D02*
D03*
X3949200D02*
D03*
D11*
X2540000Y10083300D02*
D03*
Y9988300D02*
D03*
Y9893300D02*
D03*
X2800350D02*
D03*
Y9988300D02*
D03*
Y10083300D02*
D03*
D12*
X4989600Y4997200D02*
D03*
X5054600D02*
D03*
X5119600D02*
D03*
X4989600Y4807200D02*
D03*
X5054600D02*
D03*
X5119600D02*
D03*
X4659400Y9867400D02*
D03*
X4724400D02*
D03*
X4789400D02*
D03*
X4659400Y9677400D02*
D03*
X4724400D02*
D03*
X4789400D02*
D03*
X3713225Y10015600D02*
D03*
X3778225D02*
D03*
X3843225D02*
D03*
X3713225Y9825600D02*
D03*
X3778225D02*
D03*
X3843225D02*
D03*
X4175965Y10138072D02*
D03*
X4240966D02*
D03*
X4305965D02*
D03*
X4175965Y9948072D02*
D03*
X4240966D02*
D03*
X4305965D02*
D03*
X4888000Y7041900D02*
D03*
X4953000D02*
D03*
X5018000D02*
D03*
X4888000Y6851900D02*
D03*
X4953000D02*
D03*
X5018000D02*
D03*
D13*
X4649000Y4978400D02*
D03*
X4749000D02*
D03*
X4344200Y4660900D02*
D03*
X4444200D02*
D03*
X4928400Y8686800D02*
D03*
X5028400D02*
D03*
X4852200Y9207500D02*
D03*
X4952200D02*
D03*
X2299500Y7454900D02*
D03*
X2399500D02*
D03*
X2223300Y7708900D02*
D03*
X2323300D02*
D03*
X2717000Y6438900D02*
D03*
X2617000D02*
D03*
X2628100Y6692900D02*
D03*
X2528100D02*
D03*
X2451900Y6946900D02*
D03*
X2551900D02*
D03*
X2375700Y7200900D02*
D03*
X2475700D02*
D03*
X4740440Y10053320D02*
D03*
X4840440D02*
D03*
X4254500Y9829800D02*
D03*
X4154500D02*
D03*
X4242600Y10274300D02*
D03*
X4342600D02*
D03*
X3771100Y9677400D02*
D03*
X3671100D02*
D03*
X3780865Y10175620D02*
D03*
X3880865D02*
D03*
X4723600Y9537700D02*
D03*
X4623600D02*
D03*
X5003000Y7607300D02*
D03*
X4903000D02*
D03*
X4191000Y7416800D02*
D03*
X4091000D02*
D03*
X4217200Y6776800D02*
D03*
X4117200D02*
D03*
X4307700Y7010400D02*
D03*
X4407700D02*
D03*
X5942800Y7327900D02*
D03*
X5842800D02*
D03*
X5409400Y5473700D02*
D03*
X5309400D02*
D03*
X4964500Y5600300D02*
D03*
X4864500D02*
D03*
X4748200Y5105400D02*
D03*
X4648200D02*
D03*
X8100000Y9111200D02*
D03*
X8200000D02*
D03*
X8162700Y7416000D02*
D03*
X8262700D02*
D03*
X8100000Y5504900D02*
D03*
X8200000D02*
D03*
X4153700Y4902200D02*
D03*
X4253700D02*
D03*
D14*
X2286000Y4330700D02*
D03*
Y4470700D02*
D03*
D15*
X3136900Y5626100D02*
D03*
Y4965700D02*
D03*
D16*
X4267200Y4279800D02*
D03*
X4775200D02*
D03*
X4521200D02*
D03*
X4013200D02*
D03*
X4775200Y3352800D02*
D03*
X4521200D02*
D03*
X4267200D02*
D03*
X4013200D02*
D03*
X4737100Y8724900D02*
D03*
X4483100D02*
D03*
X4229100D02*
D03*
X3975100D02*
D03*
X4737100Y7797900D02*
D03*
X4229100D02*
D03*
X3975100D02*
D03*
X4483100D02*
D03*
D17*
X4013200Y4471200D02*
D03*
Y4571200D02*
D03*
X2247900Y7950200D02*
D03*
Y8050200D02*
D03*
X1663700Y8649500D02*
D03*
Y8749500D02*
D03*
X2247900Y8927300D02*
D03*
Y8827300D02*
D03*
X2705100Y8774900D02*
D03*
Y8674900D02*
D03*
X2981960Y10083800D02*
D03*
Y9983800D02*
D03*
X4991100Y7824000D02*
D03*
Y7924000D02*
D03*
X4572000Y4659300D02*
D03*
Y4559300D02*
D03*
X5118100Y4483900D02*
D03*
Y4583900D02*
D03*
D18*
X3784700Y6057900D02*
D03*
Y5803900D02*
D03*
Y5549900D02*
D03*
Y5295900D02*
D03*
X4711700Y6057900D02*
D03*
Y5549900D02*
D03*
Y5295900D02*
D03*
Y5803900D02*
D03*
X2971800Y7518400D02*
D03*
Y7264400D02*
D03*
Y7010400D02*
D03*
Y6756400D02*
D03*
X3898800Y7518400D02*
D03*
Y7010400D02*
D03*
Y6756400D02*
D03*
Y7264400D02*
D03*
D19*
X2381500Y8723400D02*
D03*
Y8788400D02*
D03*
Y8853400D02*
D03*
X2571500Y8723400D02*
D03*
Y8788400D02*
D03*
Y8853400D02*
D03*
X4648700Y6540500D02*
D03*
Y6605500D02*
D03*
Y6670500D02*
D03*
X4838700Y6540500D02*
D03*
Y6605500D02*
D03*
Y6670500D02*
D03*
D20*
X3124200Y9207500D02*
D03*
Y9436100D02*
D03*
X2870200Y9207500D02*
D03*
Y9436100D02*
D03*
X2400300Y9499600D02*
D03*
Y9728200D02*
D03*
D21*
X3016180Y9806940D02*
D03*
X3166180D02*
D03*
D22*
X7620000Y5495496D02*
Y5626100D01*
X7569200Y5676900D02*
X7620000Y5626100D01*
X7416800Y5676900D02*
X7569200D01*
X1651000Y7962900D02*
X2247900D01*
Y8050200D02*
Y8255000D01*
X3779545Y9977145D02*
Y10016920D01*
X2324100Y7708900D02*
Y8001000D01*
X2400300Y7962900D02*
X3479800Y9042400D01*
X2400300Y7444707D02*
Y7962900D01*
X2476500Y7912100D02*
X3568700Y9004300D01*
X2476500Y7190410D02*
Y7912100D01*
X2552700Y7861300D02*
X3670300Y8978900D01*
X2552700Y6946900D02*
Y7861300D01*
X1651000Y7200900D02*
X2391439D01*
X2451900Y6946900D02*
X2463800D01*
X1651000D02*
X2451900D01*
X4250248Y9762048D02*
Y9834052D01*
X2628100Y6692900D02*
Y7797000D01*
X3797300Y8966200D01*
X4724400Y9537700D02*
Y9677400D01*
X2717800Y6438900D02*
Y7721600D01*
X3898900Y8902700D01*
X1651000Y6438900D02*
X2616200D01*
X2324100Y8001000D02*
X3403600Y9080500D01*
X3898900Y8902700D02*
Y9118600D01*
X3797300Y8966200D02*
Y9169400D01*
X4793084Y6611800D02*
X4832400D01*
X4771000Y6633884D02*
Y6667342D01*
Y6633884D02*
X4793084Y6611800D01*
X4699000Y6739342D02*
X4771000Y6667342D01*
X4699000Y6739342D02*
Y7277100D01*
X4985700Y7563800D01*
Y7601900D02*
X4997050Y7613250D01*
X4985700Y7563800D02*
Y7601900D01*
X4495800Y6870700D02*
X4648700Y6717800D01*
X4495800Y6870700D02*
Y7010400D01*
X4407700D02*
X4495800D01*
X4584700D01*
X4307700Y6842900D02*
X4545100Y6605500D01*
X4307700Y6842900D02*
Y7010400D01*
X4231279D02*
X4307700D01*
X4648700Y6670500D02*
Y6717800D01*
X4216400Y6758183D02*
Y6995521D01*
X4231279Y7010400D01*
X5029200Y8573563D02*
Y8700563D01*
X4648200Y4813300D02*
Y4978400D01*
X4254500Y4470400D02*
Y4902200D01*
X3683000Y9677400D02*
Y9786375D01*
X4007838Y4572000D02*
X4152900D01*
X3784600Y5613400D02*
X3987800D01*
X4648200Y5219400D02*
X4711700Y5282900D01*
X4648200Y5105400D02*
Y5219400D01*
X4711700Y5282900D02*
Y5295900D01*
X4748200Y5105400D02*
X4748600Y5105000D01*
Y4978800D02*
X4749000Y4978400D01*
X4748600Y4978800D02*
Y5105000D01*
X4749000Y4978400D02*
X4813300D01*
X4862200Y4929500D01*
X5026215D01*
X4685500Y9436100D02*
X4723600Y9474200D01*
X4216400Y9436100D02*
X4685500D01*
X3898900Y9118600D02*
X4216400Y9436100D01*
X3670300Y8978900D02*
Y9182100D01*
X3568700Y9004300D02*
Y9245600D01*
X3479800Y9042400D02*
Y9321800D01*
X3403600Y9080500D02*
Y9685275D01*
X2577800Y8782100D02*
X2705100D01*
X1663700Y8749500D02*
X1882012D01*
X2173313Y8458200D02*
X2692400D01*
X1882012Y8749500D02*
X2173313Y8458200D01*
X4152900Y4572000D02*
X4254500Y4470400D01*
X4344200Y4560100D01*
Y4660900D01*
X4457700D02*
X4571200D01*
X4545100Y6605500D02*
X4648700D01*
X3975100Y7670800D02*
X4114800Y7531100D01*
X4826800D02*
X4880700Y7585000D01*
X4114800Y7531100D02*
X4826800D01*
X3975100Y7670800D02*
Y7797900D01*
X4885700Y7585000D02*
X4903000Y7602300D01*
X4880700Y7585000D02*
X4885700D01*
X4903000Y7602300D02*
Y7607300D01*
X4997050Y7613250D02*
Y7817250D01*
X4991100Y7823200D02*
X4997050Y7817250D01*
X3721100Y8470900D02*
X4394200D01*
X4483100Y8559800D01*
Y8724900D01*
X4229100D02*
Y8940800D01*
X4399500Y9111200D02*
X7700000D01*
X4229100Y8940800D02*
X4399500Y9111200D01*
X5049909Y4802509D02*
X5054600Y4807200D01*
X4572000Y4659300D02*
X4951400D01*
X5049909Y4757809D02*
Y4802509D01*
X4951400Y4659300D02*
X5049909Y4757809D01*
X8195750Y9127050D02*
X8204200Y9118600D01*
X8195750Y9127050D02*
Y9254050D01*
X8191500Y9258300D02*
X8195750Y9254050D01*
X4991100Y7924000D02*
Y8039100D01*
X5026215Y4929500D02*
X5048300Y4951584D01*
Y4990900D02*
X5054600Y4997200D01*
X5048300Y4951584D02*
Y4990900D01*
X4832400Y6611800D02*
X4838700Y6605500D01*
X4991100Y7823200D02*
Y7824000D01*
X4427600Y9799700D02*
X4696016D01*
X3797300Y9169400D02*
X4427600Y9799700D01*
X3670300Y9182100D02*
X4250248Y9762048D01*
X3568700Y9245600D02*
X3924300Y9601200D01*
Y9855200D01*
X3771100Y9613100D02*
Y9677400D01*
X3479800Y9321800D02*
X3771100Y9613100D01*
X3403600Y9685275D02*
X3662425Y9944100D01*
X3778225Y9677400D02*
Y9825600D01*
X1651000Y7454900D02*
X2298700D01*
X2692400Y8458200D02*
X2819400Y8585200D01*
X2584180Y8566420D02*
X2590800Y8559800D01*
X2595400Y8564400D01*
X2658900D01*
X2584180Y8566420D02*
Y8715100D01*
X2658900Y8564400D02*
X2705100Y8610600D01*
X2997200Y9055100D02*
Y9207500D01*
X4723600Y9474200D02*
Y9537700D01*
X4623600D02*
Y9632600D01*
X3924300Y9855200D02*
X4138212Y10069112D01*
X4211321D01*
X4234665Y10092457D01*
X3879595Y10176890D02*
Y10293730D01*
X3878325Y10295000D02*
X3879595Y10293730D01*
X4234665Y10131772D02*
X4240966Y10138072D01*
X3879595Y10176890D02*
X3880865Y10175620D01*
X4234665Y10092457D02*
Y10131772D01*
X4240966Y10138072D02*
X4241783Y10138889D01*
Y10273483D01*
X4242600Y10274300D01*
X3683000Y9786375D02*
X3713225Y9816600D01*
Y9825600D01*
X3662425Y9944100D02*
X3746500D01*
X2819400Y8585200D02*
Y8750300D01*
X2794800Y8774900D02*
X2819400Y8750300D01*
X2705100Y8774900D02*
X2794800D01*
X2870200Y9207500D02*
X2997200D01*
X3124200D01*
X2571500Y8788400D02*
X2577800Y8782100D01*
X2705100Y8610600D02*
Y8674900D01*
X2575880Y8723400D02*
X2584180Y8715100D01*
X2571500Y8723400D02*
X2575880D01*
X2247900Y8927300D02*
Y9067800D01*
X2365100Y8861700D02*
Y8912421D01*
X2247900Y8927300D02*
X2350221D01*
X2365100Y8912421D01*
Y8861700D02*
X2373400Y8853400D01*
X2381500D01*
X2254744Y8820456D02*
X2304744D01*
X2247900Y8827300D02*
X2254744Y8820456D01*
X2304744D02*
X2330500Y8794700D01*
X2375200D02*
X2381500Y8788400D01*
X2330500Y8794700D02*
X2375200D01*
X2247900Y8712200D02*
Y8827300D01*
X3863565Y10158320D02*
X3880865Y10175620D01*
X4724400Y9867400D02*
X4730700Y9873700D01*
X4718100Y9861100D02*
X4724400Y9867400D01*
X1651000Y6692900D02*
X2527300D01*
X1651000Y7708900D02*
X2222500D01*
X3836925Y9962683D02*
Y10009300D01*
X3767542Y9893300D02*
X3836925Y9962683D01*
X3713225Y9825600D02*
X3719525Y9831900D01*
X3741609Y9893300D02*
X3767542D01*
X3719525Y9831900D02*
Y9871216D01*
X3746500Y9944100D02*
X3779545Y9977145D01*
X3836925Y10009300D02*
X3843225Y10015600D01*
X3719525Y9871216D02*
X3741609Y9893300D01*
X3778225Y10015600D02*
X3779545Y10016920D01*
X4960620Y9837420D02*
Y10053320D01*
X4872100Y9748900D02*
X4960620Y9837420D01*
X4691584Y9748900D02*
X4872100D01*
X4665700Y9723016D02*
X4691584Y9748900D01*
X4665700Y9683700D02*
Y9723016D01*
X4659400Y9677400D02*
X4665700Y9683700D01*
X4718100Y9821784D02*
Y9861100D01*
X4696016Y9799700D02*
X4718100Y9821784D01*
X4659400Y9668400D02*
Y9677400D01*
X4623600Y9632600D02*
X4659400Y9668400D01*
X4840440Y10053320D02*
X4960620D01*
X4789400Y9940990D02*
X4828630Y9980220D01*
Y10041510D02*
X4840440Y10053320D01*
X4789400Y9867400D02*
Y9940990D01*
X4828630Y9980220D02*
Y10041510D01*
X4730700Y9873700D02*
Y10043580D01*
X4740440Y10053320D01*
X3843225Y10083700D02*
X3863565Y10104040D01*
X3843225Y10015600D02*
Y10083700D01*
X3863565Y10104040D02*
Y10158320D01*
X3779545Y10174300D02*
X3780865Y10175620D01*
X3779545Y10016920D02*
Y10174300D01*
X2981960Y9851160D02*
X3016180Y9816940D01*
X2981960Y9851160D02*
Y9983800D01*
X3016180Y9806940D02*
Y9816940D01*
X2802600Y9986050D02*
X2979710D01*
X2800350Y9988300D02*
X2802600Y9986050D01*
X2979710D02*
X2981960Y9983800D01*
X2800350Y10083300D02*
X2800600Y10083550D01*
X2981710D01*
X2981960Y10083800D01*
X2646680Y9499600D02*
X2800350Y9653270D01*
Y9893300D01*
X2400300Y9499600D02*
X2646680D01*
X7800000Y9111200D02*
X8100000D01*
X8262700Y7269400D02*
Y7416000D01*
X7812700D02*
X8162700D01*
X4191400Y7264800D02*
Y7416400D01*
X8200000Y5355200D02*
Y5504900D01*
X7800000D02*
X8100000D01*
X5026300Y6810100D02*
X5092700Y6743700D01*
X5026300Y6810100D02*
Y6843600D01*
X4571200Y4660100D02*
X4572000Y4659300D01*
D23*
X3759200Y4292600D02*
X4521200Y3530600D01*
X3759200Y4292600D02*
Y4875085D01*
X4648200Y4807200D02*
X4989600D01*
X4914900Y5346700D02*
X4965700Y5397500D01*
Y5590994D01*
X2437600Y4330700D02*
X2829200Y3939100D01*
X2286000Y4330700D02*
X2437600D01*
X2829200Y3939100D02*
X2939200D01*
X4267200Y3352800D02*
Y3530600D01*
X4051300Y3746500D02*
X4267200Y3530600D01*
X2413000Y3746500D02*
X4051300D01*
X4521200Y3352800D02*
Y3530600D01*
X2044700Y4114800D02*
X2413000Y3746500D01*
X1803400Y4114800D02*
X2044700D01*
X1790700Y4102100D02*
X1803400Y4114800D01*
X5066670Y4876170D02*
X5118100Y4927600D01*
X4994630Y4853342D02*
X5017458Y4876170D01*
X5066670D01*
X5118100Y4927600D02*
Y4995700D01*
X5119600Y4997200D01*
X4994630Y4812230D02*
Y4853342D01*
X4989600Y4807200D02*
X4994630Y4812230D01*
X4813300Y6388100D02*
Y6396775D01*
X4838700Y6422175D02*
Y6540500D01*
X4813300Y6396775D02*
X4838700Y6422175D01*
X4305965Y10137820D02*
Y10138072D01*
Y10062352D02*
Y10137820D01*
X4250248Y9834052D02*
X4254500Y9829800D01*
X4245996Y9838304D02*
X4250248Y9834052D01*
X4245996Y9838304D02*
Y9943042D01*
X4240966Y9948072D02*
X4245996Y9943042D01*
X4154500Y9917607D02*
X4175965Y9939072D01*
Y9948072D01*
X4154500Y9829800D02*
Y9917607D01*
X4180996Y9994214D02*
X4203824Y10017042D01*
X4180996Y9953103D02*
Y9994214D01*
X4179726Y9951833D02*
X4180996Y9953103D01*
X4203824Y10017042D02*
X4260655D01*
X4305965Y10062352D01*
D24*
X2806700Y7251700D02*
X2971500D01*
X2971800Y7251400D01*
Y7277100D01*
X5138220Y4483100D02*
X6286900D01*
X6800000Y3970000D01*
X6451600Y5473700D02*
X6804026Y5826126D01*
X5409400Y5473700D02*
X6451600D01*
X4953000Y7162800D02*
X5118101Y7327900D01*
X5835418D01*
X6280900Y7652500D02*
X6812700D01*
X5943600Y7315200D02*
X6280900Y7652500D01*
X4951400Y9207500D02*
Y9282100D01*
X4699000Y9230200D02*
X4704926D01*
X4715976Y9219150D01*
X4841250D01*
Y9213450D02*
Y9219150D01*
X4951400Y9282100D02*
X5359400Y9690100D01*
X6495700D02*
X6800000Y9385800D01*
X5359400Y9690100D02*
X6495700D01*
X2489200Y10604500D02*
X2730500Y10363200D01*
X2489200Y10604500D02*
Y10718800D01*
X2730500Y10363200D02*
X3098800D01*
D25*
X2984500Y5511800D02*
X3136900D01*
Y5626100D02*
Y5918200D01*
X2882900Y4565442D02*
Y5410200D01*
X2984500Y5511800D01*
X2882900Y4565442D02*
X2929242Y4519100D01*
X2939200D01*
D26*
X4800600Y7086600D02*
Y7213600D01*
X4882240Y7056660D02*
X4888000Y7050900D01*
X4800600Y7086600D02*
X4830540Y7056660D01*
X4888000Y7041900D02*
Y7050900D01*
X4830540Y7056660D02*
X4882240D01*
X3919200Y6776800D02*
X4117200D01*
X3632200Y5803900D02*
X3784700D01*
X2650761Y6067061D02*
X3369039D01*
X3632200Y5803900D01*
X2358661Y5774961D02*
X2650761Y6067061D01*
X2358661Y4924061D02*
Y5774961D01*
X1790700Y4356100D02*
X2358661Y4924061D01*
X4711700Y6057900D02*
X4851400D01*
X4927600Y5981700D01*
Y5816600D02*
Y5981700D01*
X4864500Y5753500D02*
X4927600Y5816600D01*
X4864500Y5600300D02*
Y5753500D01*
X4711700Y5549900D02*
X4762100Y5600300D01*
X4864500D01*
X2286000Y4470700D02*
X2753654D01*
X2802054Y4519100D01*
X4361748Y4133348D02*
X4508200Y4279800D01*
X4361748Y4069648D02*
Y4133348D01*
X4508200Y4279800D02*
X4521200D01*
X4356100Y4064000D02*
X4361748Y4069648D01*
X4013200Y4279800D02*
X4026200D01*
X4242000Y4064000D01*
X4356100D01*
X3970100Y4902200D02*
X4153700D01*
X4013200Y4279800D02*
Y4471200D01*
X4591452Y4514448D02*
X4722235Y4383665D01*
Y4332765D02*
X4775200Y4279800D01*
X4722235Y4332765D02*
Y4383665D01*
X4572000Y4559300D02*
X4576692D01*
X4591452Y4544540D01*
Y4514448D02*
Y4544540D01*
X3898800Y6756400D02*
X3919200Y6776800D01*
X3683000Y7073900D02*
Y7239000D01*
Y7073900D02*
X3746500Y7010400D01*
X3898800D01*
X3683000Y7239000D02*
Y7467600D01*
X3733800Y7518400D02*
X3898800D01*
X3683000Y7467600D02*
X3733800Y7518400D01*
X3898800D02*
X3911800Y7505400D01*
X4007400D01*
X4091000Y7421800D01*
Y7416800D02*
Y7421800D01*
X4928400Y8484400D02*
Y8686800D01*
X4737100Y8293100D02*
X4928400Y8484400D01*
X4737100Y7797900D02*
Y8293100D01*
X4305300Y7645400D02*
X4737100D01*
X4229100Y7797900D02*
X4256665Y7770335D01*
Y7694035D02*
Y7770335D01*
Y7694035D02*
X4305300Y7645400D01*
X4737100D02*
Y7797900D01*
X4635500Y10718800D02*
X5054600Y10299700D01*
X4381500Y10718800D02*
X4659400Y10440900D01*
X3975100Y10020458D02*
Y10350500D01*
X3835400Y10490200D02*
X3975100Y10350500D01*
X4175965Y9948072D02*
X4179726Y9951833D01*
X3843225Y9888583D02*
X3975100Y10020458D01*
X3843225Y9825600D02*
Y9888583D01*
X3637355Y10490200D02*
X3835400D01*
X3619500Y10508055D02*
Y10718800D01*
Y10508055D02*
X3637355Y10490200D01*
X4170206Y10135880D02*
X4179726Y10126359D01*
X4051300Y10274300D02*
Y10541000D01*
X4170206Y10135880D02*
Y10155395D01*
X4051300Y10274300D02*
X4170206Y10155395D01*
X3873500Y10718800D02*
X4051300Y10541000D01*
X3365500Y10502900D02*
Y10718800D01*
X3497325Y10232281D02*
Y10375900D01*
X3365500Y10502900D02*
X3492500Y10375900D01*
X3497325Y10232281D02*
X3699246Y10030360D01*
X3707465D01*
X5054600Y9801860D02*
Y10299700D01*
X4930140Y9677400D02*
X5054600Y9801860D01*
X4659400Y9867400D02*
Y10440900D01*
X4789400Y9677400D02*
X4930140D01*
D27*
X4813300Y6774499D02*
X4838700Y6749099D01*
Y6670500D02*
Y6749099D01*
X4813300Y6774499D02*
Y6781800D01*
X1663700Y8204200D02*
Y8649500D01*
X5119600Y4583900D02*
Y4807200D01*
X5249383Y5469105D02*
X5304805D01*
X4992090Y5211811D02*
X5249383Y5469105D01*
X5296700Y5473700D02*
Y6755600D01*
X5304805Y5469105D02*
X5309400Y5473700D01*
X4992090Y4999690D02*
Y5211811D01*
X4989600Y4997200D02*
X4992090Y4999690D01*
X4953000Y7162800D02*
X4953000Y7162800D01*
Y7041900D02*
Y7162800D01*
X4648200Y6540000D02*
X4648700Y6540500D01*
X4648200Y6477000D02*
Y6540000D01*
X4597400Y6426200D02*
X4648200Y6477000D01*
X4495800Y6426200D02*
X4597400D01*
X5128890Y6923410D02*
X5296700Y6755600D01*
X4890490Y6899094D02*
X4914807Y6923410D01*
X5128890D01*
X5105318Y7119538D02*
X5110480Y7124700D01*
X5031490Y7055390D02*
X5095638Y7119538D01*
X5105318D01*
X4890490Y6854390D02*
Y6899094D01*
D28*
X3314700Y4965700D02*
X3517900Y4762500D01*
Y4703250D02*
Y4762500D01*
X3136900Y4965700D02*
X3314700D01*
X3166180Y9806940D02*
Y9909880D01*
Y9427280D02*
Y9806940D01*
X2870200Y9436100D02*
X2879020Y9427280D01*
X3166180D01*
Y9909880D02*
X3225800Y9969500D01*
D29*
X5080000Y5435600D02*
Y6553200D01*
X4953000Y6680200D02*
Y6851900D01*
Y6680200D02*
X5080000Y6553200D01*
X5117700Y4584300D02*
X5118100Y4583900D01*
X4877200Y4584300D02*
X5117700D01*
X4876800Y4584700D02*
X4877200Y4584300D01*
X3314700Y9105900D02*
Y10350500D01*
X3149600Y8940800D02*
X3314700Y9105900D01*
X2946400Y10718800D02*
X3314700Y10350500D01*
X2616200Y8940800D02*
X3149600D01*
X2571500Y8853400D02*
X2572250Y8852650D01*
X2996450D02*
X2997200Y8851900D01*
X2572250Y8852650D02*
X2996450D01*
X2381500Y8629900D02*
Y8723400D01*
X2336800Y8585200D02*
X2381500Y8629900D01*
X2209800Y8585200D02*
X2336800D01*
X2108200Y8686800D02*
X2209800Y8585200D01*
X2108200Y8686800D02*
Y9067800D01*
X2387600Y9169400D02*
X2616200Y8940800D01*
X2108200Y9067800D02*
X2209800Y9169400D01*
X2387600D01*
X4309185Y9960292D02*
X4372292D01*
X4546600Y10134600D01*
X4305965Y9957072D02*
X4309185Y9960292D01*
Y10134600D02*
X4432274D01*
X4359820Y10257080D02*
X4431487Y10185413D01*
X4354820Y10257080D02*
X4359820D01*
X4305965Y10137820D02*
X4309185Y10134600D01*
X4342600Y10269300D02*
Y10274300D01*
X4431487Y10135387D02*
Y10185413D01*
X4432274Y10134600D02*
X4432300D01*
X4431487Y10135387D02*
X4432274Y10134600D01*
X4342600Y10269300D02*
X4354820Y10257080D01*
X4127500Y10718800D02*
X4546600Y10299700D01*
Y10134600D02*
Y10299700D01*
X4305965Y9948072D02*
Y9957072D01*
X2743200Y10718800D02*
X2946400D01*
D30*
X3365500Y7010400D02*
X4000500Y6375400D01*
X2978034Y7010400D02*
X3365500D01*
X4000500Y6375400D02*
X4178300D01*
X7366000Y7416800D02*
X7709700D01*
D31*
X1651000Y5930900D02*
D03*
X1790700Y4864100D02*
D03*
X2032000Y9563100D02*
D03*
D32*
X1651000Y6184900D02*
D03*
Y6692900D02*
D03*
Y6946900D02*
D03*
Y7200900D02*
D03*
Y7454900D02*
D03*
Y7708900D02*
D03*
Y7962900D02*
D03*
Y8216900D02*
D03*
Y6438900D02*
D03*
X1790700Y4610100D02*
D03*
Y4356100D02*
D03*
Y4102100D02*
D03*
X1778000Y9563100D02*
D03*
X2032000Y9817100D02*
D03*
X1778000D02*
D03*
X2032000Y10071100D02*
D03*
X1778000D02*
D03*
X2743200Y10972800D02*
D03*
Y10718800D02*
D03*
X2489200Y10972800D02*
D03*
X4635500D02*
D03*
Y10718800D02*
D03*
X4381500Y10972800D02*
D03*
Y10718800D02*
D03*
X4127500Y10972800D02*
D03*
Y10718800D02*
D03*
X3873500Y10972800D02*
D03*
Y10718800D02*
D03*
X3619500Y10972800D02*
D03*
Y10718800D02*
D03*
X3365500Y10972800D02*
D03*
D33*
X2166620Y5420360D02*
D03*
X1912620D02*
D03*
X1658620D02*
D03*
D34*
X8000000Y4320000D02*
D03*
Y4820000D02*
D03*
Y6154900D02*
D03*
Y6654900D02*
D03*
X8013700Y7966900D02*
D03*
Y8466900D02*
D03*
X8000000Y10235800D02*
D03*
Y9735800D02*
D03*
D35*
X6800000Y7004900D02*
D03*
X5580000Y5804900D02*
D03*
X6800000D02*
D03*
X7000000Y6404900D02*
D03*
X5580000Y7004900D02*
D03*
Y5170000D02*
D03*
X7000000Y4570000D02*
D03*
X6800000Y3970000D02*
D03*
X5580000D02*
D03*
X6800000Y5170000D02*
D03*
X5580000Y10585800D02*
D03*
X7000000Y9985800D02*
D03*
X6800000Y9385800D02*
D03*
X5580000D02*
D03*
X6800000Y10585800D02*
D03*
X5592700Y8852500D02*
D03*
X7012700Y8252500D02*
D03*
X6812700Y7652500D02*
D03*
X5592700D02*
D03*
X6812700Y8852500D02*
D03*
D36*
X2939200Y4519100D02*
D03*
Y3939100D02*
D03*
D37*
X3419200Y4229100D02*
D03*
D38*
X2489200Y10718800D02*
D03*
X3365500D02*
D03*
D39*
X2247900Y8255000D02*
D03*
X2806700Y7251700D02*
D03*
X4813300Y6781800D02*
D03*
X4800600Y7213600D02*
D03*
X4584700Y7010400D02*
D03*
X3517900Y4699000D02*
D03*
X3136900Y5918200D02*
D03*
X4648200Y4813300D02*
D03*
X4914900Y5346700D02*
D03*
X5080000Y5435600D02*
D03*
X4254500Y4470400D02*
D03*
X3721100Y8470900D02*
D03*
X5029200Y8559800D02*
D03*
X4356100Y4064000D02*
D03*
X7366000Y7416800D02*
D03*
X4178300Y6375400D02*
D03*
X4876800Y4584700D02*
D03*
X8191500Y9258300D02*
D03*
X4699000Y9230200D02*
D03*
X4991100Y8039100D02*
D03*
X7416800Y5676900D02*
D03*
X4813300Y6388100D02*
D03*
X4495800Y6426200D02*
D03*
X2997200Y8851900D02*
D03*
X2590800Y8559800D02*
D03*
X2997200Y9055100D02*
D03*
X3878325Y10295000D02*
D03*
X4432300Y10134600D02*
D03*
X2247900Y9067800D02*
D03*
Y8712200D02*
D03*
X3098800Y10363200D02*
D03*
X4960620Y10053320D02*
D03*
X3987800Y5613400D02*
D03*
X3225800Y9969500D02*
D03*
X2800350Y9653270D02*
D03*
X2565400Y9652000D02*
D03*
X2349500Y9944100D02*
D03*
X8262700Y7269400D02*
D03*
X5110480Y7124700D02*
D03*
X4953000Y7162800D02*
D03*
X4737100Y7645400D02*
D03*
X4191800Y7264400D02*
D03*
X3683000Y7239000D02*
D03*
X8200000Y5355200D02*
D03*
X5092700Y6743700D02*
D03*
X4927600Y5816600D02*
D03*
%TF.MD5,6edc452a757026b753c6613ab3fe1007*%
M02*
