%TF.GenerationSoftware,Altium Limited,Altium Designer,23.9.2 (47)*%
G04 Layer_Color=255*
%FSLAX45Y45*%
%MOMM*%
%TF.SameCoordinates,15915765-FD2E-4A0E-A91D-014651F65676*%
%TF.FilePolarity,Positive*%
%TF.FileFunction,Pads,Top*%
%TF.Part,Single*%
G01*
G75*
%TA.AperFunction,SMDPad,CuDef*%
G04:AMPARAMS|DCode=10|XSize=1mm|YSize=1.7mm|CornerRadius=0.125mm|HoleSize=0mm|Usage=FLASHONLY|Rotation=180.000|XOffset=0mm|YOffset=0mm|HoleType=Round|Shape=RoundedRectangle|*
%AMROUNDEDRECTD10*
21,1,1.00000,1.45000,0,0,180.0*
21,1,0.75000,1.70000,0,0,180.0*
1,1,0.25000,-0.37500,0.72500*
1,1,0.25000,0.37500,0.72500*
1,1,0.25000,0.37500,-0.72500*
1,1,0.25000,-0.37500,-0.72500*
%
%ADD10ROUNDEDRECTD10*%
%ADD11R,0.90170X0.50800*%
%ADD12R,0.42000X0.60000*%
G04:AMPARAMS|DCode=13|XSize=0.6mm|YSize=0.7mm|CornerRadius=0.075mm|HoleSize=0mm|Usage=FLASHONLY|Rotation=0.000|XOffset=0mm|YOffset=0mm|HoleType=Round|Shape=RoundedRectangle|*
%AMROUNDEDRECTD13*
21,1,0.60000,0.55000,0,0,0.0*
21,1,0.45000,0.70000,0,0,0.0*
1,1,0.15000,0.22500,-0.27500*
1,1,0.15000,-0.22500,-0.27500*
1,1,0.15000,-0.22500,0.27500*
1,1,0.15000,0.22500,0.27500*
%
%ADD13ROUNDEDRECTD13*%
%ADD14R,0.70000X0.60000*%
%ADD15R,1.09220X3.40360*%
%ADD16R,1.78000X1.52000*%
G04:AMPARAMS|DCode=17|XSize=0.6mm|YSize=0.7mm|CornerRadius=0.075mm|HoleSize=0mm|Usage=FLASHONLY|Rotation=90.000|XOffset=0mm|YOffset=0mm|HoleType=Round|Shape=RoundedRectangle|*
%AMROUNDEDRECTD17*
21,1,0.60000,0.55000,0,0,90.0*
21,1,0.45000,0.70000,0,0,90.0*
1,1,0.15000,0.27500,0.22500*
1,1,0.15000,0.27500,-0.22500*
1,1,0.15000,-0.27500,-0.22500*
1,1,0.15000,-0.27500,0.22500*
%
%ADD17ROUNDEDRECTD17*%
%ADD18R,1.52000X1.78000*%
%ADD19R,0.60000X0.42000*%
G04:AMPARAMS|DCode=20|XSize=1.4mm|YSize=1.7mm|CornerRadius=0.175mm|HoleSize=0mm|Usage=FLASHONLY|Rotation=90.000|XOffset=0mm|YOffset=0mm|HoleType=Round|Shape=RoundedRectangle|*
%AMROUNDEDRECTD20*
21,1,1.40000,1.35000,0,0,90.0*
21,1,1.05000,1.70000,0,0,90.0*
1,1,0.35000,0.67500,0.52500*
1,1,0.35000,0.67500,-0.52500*
1,1,0.35000,-0.67500,-0.52500*
1,1,0.35000,-0.67500,0.52500*
%
%ADD20ROUNDEDRECTD20*%
G04:AMPARAMS|DCode=21|XSize=0.8mm|YSize=1mm|CornerRadius=0.1mm|HoleSize=0mm|Usage=FLASHONLY|Rotation=0.000|XOffset=0mm|YOffset=0mm|HoleType=Round|Shape=RoundedRectangle|*
%AMROUNDEDRECTD21*
21,1,0.80000,0.80000,0,0,0.0*
21,1,0.60000,1.00000,0,0,0.0*
1,1,0.20000,0.30000,-0.40000*
1,1,0.20000,-0.30000,-0.40000*
1,1,0.20000,-0.30000,0.40000*
1,1,0.20000,0.30000,0.40000*
%
%ADD21ROUNDEDRECTD21*%
%TA.AperFunction,ComponentPad*%
%ADD31R,1.50000X1.50000*%
%ADD32C,1.50000*%
%ADD33C,1.65100*%
%ADD34C,2.00000*%
%ADD35C,1.75000*%
%ADD36O,3.50800X1.30800*%
%ADD37O,1.30800X3.50800*%
%ADD38R,1.50000X1.50000*%
D10*
X7652000Y9118600D02*
D03*
X7842000D02*
D03*
X7664700Y7404100D02*
D03*
X7854700D02*
D03*
X7620000Y5499100D02*
D03*
X7810000D02*
D03*
X3759200Y4914900D02*
D03*
X3949200D02*
D03*
D11*
X2540000Y10083300D02*
D03*
Y9988300D02*
D03*
Y9893300D02*
D03*
X2800350D02*
D03*
Y9988300D02*
D03*
Y10083300D02*
D03*
D12*
X4989600Y4997200D02*
D03*
X5054600D02*
D03*
X5119600D02*
D03*
X4989600Y4807200D02*
D03*
X5054600D02*
D03*
X5119600D02*
D03*
X4659400Y9867400D02*
D03*
X4724400D02*
D03*
X4789400D02*
D03*
X4659400Y9677400D02*
D03*
X4724400D02*
D03*
X4789400D02*
D03*
X3713225Y10015600D02*
D03*
X3778225D02*
D03*
X3843225D02*
D03*
X3713225Y9825600D02*
D03*
X3778225D02*
D03*
X3843225D02*
D03*
X4175965Y10138072D02*
D03*
X4240966D02*
D03*
X4305965D02*
D03*
X4175965Y9948072D02*
D03*
X4240966D02*
D03*
X4305965D02*
D03*
X4888000Y7041900D02*
D03*
X4953000D02*
D03*
X5018000D02*
D03*
X4888000Y6851900D02*
D03*
X4953000D02*
D03*
X5018000D02*
D03*
D13*
X4649000Y4978400D02*
D03*
X4749000D02*
D03*
X4344200Y4660900D02*
D03*
X4444200D02*
D03*
X4928400Y8686800D02*
D03*
X5028400D02*
D03*
X4852200Y9207500D02*
D03*
X4952200D02*
D03*
X2299500Y7454900D02*
D03*
X2399500D02*
D03*
X2223300Y7708900D02*
D03*
X2323300D02*
D03*
X2717000Y6438900D02*
D03*
X2617000D02*
D03*
X2628100Y6692900D02*
D03*
X2528100D02*
D03*
X2451900Y6946900D02*
D03*
X2551900D02*
D03*
X2375700Y7200900D02*
D03*
X2475700D02*
D03*
X4740440Y10053320D02*
D03*
X4840440D02*
D03*
X4254500Y9829800D02*
D03*
X4154500D02*
D03*
X4242600Y10274300D02*
D03*
X4342600D02*
D03*
X3771100Y9677400D02*
D03*
X3671100D02*
D03*
X3780865Y10175620D02*
D03*
X3880865D02*
D03*
X4723600Y9537700D02*
D03*
X4623600D02*
D03*
X5003000Y7607300D02*
D03*
X4903000D02*
D03*
X4191000Y7416800D02*
D03*
X4091000D02*
D03*
X4217200Y6776800D02*
D03*
X4117200D02*
D03*
X4307700Y7010400D02*
D03*
X4407700D02*
D03*
X5942800Y7327900D02*
D03*
X5842800D02*
D03*
X5409400Y5473700D02*
D03*
X5309400D02*
D03*
X4964500Y5600300D02*
D03*
X4864500D02*
D03*
X4748200Y5105400D02*
D03*
X4648200D02*
D03*
X8100000Y9111200D02*
D03*
X8200000D02*
D03*
X8162700Y7416000D02*
D03*
X8262700D02*
D03*
X8100000Y5504900D02*
D03*
X8200000D02*
D03*
X4153700Y4902200D02*
D03*
X4253700D02*
D03*
D14*
X2286000Y4330700D02*
D03*
Y4470700D02*
D03*
D15*
X3136900Y5626100D02*
D03*
Y4965700D02*
D03*
D16*
X4267200Y4279800D02*
D03*
X4775200D02*
D03*
X4521200D02*
D03*
X4013200D02*
D03*
X4775200Y3352800D02*
D03*
X4521200D02*
D03*
X4267200D02*
D03*
X4013200D02*
D03*
X4737100Y8724900D02*
D03*
X4483100D02*
D03*
X4229100D02*
D03*
X3975100D02*
D03*
X4737100Y7797900D02*
D03*
X4229100D02*
D03*
X3975100D02*
D03*
X4483100D02*
D03*
D17*
X4013200Y4471200D02*
D03*
Y4571200D02*
D03*
X2247900Y7950200D02*
D03*
Y8050200D02*
D03*
X1663700Y8649500D02*
D03*
Y8749500D02*
D03*
X2247900Y8927300D02*
D03*
Y8827300D02*
D03*
X2705100Y8774900D02*
D03*
Y8674900D02*
D03*
X2981960Y10083800D02*
D03*
Y9983800D02*
D03*
X4991100Y7824000D02*
D03*
Y7924000D02*
D03*
X4572000Y4659300D02*
D03*
Y4559300D02*
D03*
X5118100Y4483900D02*
D03*
Y4583900D02*
D03*
D18*
X3784700Y6057900D02*
D03*
Y5803900D02*
D03*
Y5549900D02*
D03*
Y5295900D02*
D03*
X4711700Y6057900D02*
D03*
Y5549900D02*
D03*
Y5295900D02*
D03*
Y5803900D02*
D03*
X2971800Y7518400D02*
D03*
Y7264400D02*
D03*
Y7010400D02*
D03*
Y6756400D02*
D03*
X3898800Y7518400D02*
D03*
Y7010400D02*
D03*
Y6756400D02*
D03*
Y7264400D02*
D03*
D19*
X2381500Y8723400D02*
D03*
Y8788400D02*
D03*
Y8853400D02*
D03*
X2571500Y8723400D02*
D03*
Y8788400D02*
D03*
Y8853400D02*
D03*
X4648700Y6540500D02*
D03*
Y6605500D02*
D03*
Y6670500D02*
D03*
X4838700Y6540500D02*
D03*
Y6605500D02*
D03*
Y6670500D02*
D03*
D20*
X3124200Y9207500D02*
D03*
Y9436100D02*
D03*
X2870200Y9207500D02*
D03*
Y9436100D02*
D03*
X2400300Y9499600D02*
D03*
Y9728200D02*
D03*
D21*
X3016180Y9806940D02*
D03*
X3166180D02*
D03*
D31*
X1651000Y5930900D02*
D03*
X1790700Y4864100D02*
D03*
X2032000Y9563100D02*
D03*
D32*
X1651000Y6184900D02*
D03*
Y6692900D02*
D03*
Y6946900D02*
D03*
Y7200900D02*
D03*
Y7454900D02*
D03*
Y7708900D02*
D03*
Y7962900D02*
D03*
Y8216900D02*
D03*
Y6438900D02*
D03*
X1790700Y4610100D02*
D03*
Y4356100D02*
D03*
Y4102100D02*
D03*
X1778000Y9563100D02*
D03*
X2032000Y9817100D02*
D03*
X1778000D02*
D03*
X2032000Y10071100D02*
D03*
X1778000D02*
D03*
X2743200Y10972800D02*
D03*
Y10718800D02*
D03*
X2489200Y10972800D02*
D03*
X4635500D02*
D03*
Y10718800D02*
D03*
X4381500Y10972800D02*
D03*
Y10718800D02*
D03*
X4127500Y10972800D02*
D03*
Y10718800D02*
D03*
X3873500Y10972800D02*
D03*
Y10718800D02*
D03*
X3619500Y10972800D02*
D03*
Y10718800D02*
D03*
X3365500Y10972800D02*
D03*
D33*
X2166620Y5420360D02*
D03*
X1912620D02*
D03*
X1658620D02*
D03*
D34*
X8000000Y4320000D02*
D03*
Y4820000D02*
D03*
Y6154900D02*
D03*
Y6654900D02*
D03*
X8013700Y7966900D02*
D03*
Y8466900D02*
D03*
X8000000Y10235800D02*
D03*
Y9735800D02*
D03*
D35*
X6800000Y7004900D02*
D03*
X5580000Y5804900D02*
D03*
X6800000D02*
D03*
X7000000Y6404900D02*
D03*
X5580000Y7004900D02*
D03*
Y5170000D02*
D03*
X7000000Y4570000D02*
D03*
X6800000Y3970000D02*
D03*
X5580000D02*
D03*
X6800000Y5170000D02*
D03*
X5580000Y10585800D02*
D03*
X7000000Y9985800D02*
D03*
X6800000Y9385800D02*
D03*
X5580000D02*
D03*
X6800000Y10585800D02*
D03*
X5592700Y8852500D02*
D03*
X7012700Y8252500D02*
D03*
X6812700Y7652500D02*
D03*
X5592700D02*
D03*
X6812700Y8852500D02*
D03*
D36*
X2939200Y4519100D02*
D03*
Y3939100D02*
D03*
D37*
X3419200Y4229100D02*
D03*
D38*
X2489200Y10718800D02*
D03*
X3365500D02*
D03*
%TF.MD5,1b18716a48214754f232697bab85c85c*%
M02*
