%TF.GenerationSoftware,Altium Limited,Altium Designer,23.9.2 (47)*%
G04 Layer_Color=255*
%FSLAX45Y45*%
%MOMM*%
%TF.SameCoordinates,15915765-FD2E-4A0E-A91D-014651F65676*%
%TF.FilePolarity,Positive*%
%TF.FileFunction,Pads,Bot*%
%TF.Part,Single*%
G01*
G75*
%TA.AperFunction,ComponentPad*%
%ADD31R,1.50000X1.50000*%
%ADD32C,1.50000*%
%ADD33C,1.65100*%
%ADD34C,2.00000*%
%ADD35C,1.75000*%
%ADD36O,3.50800X1.30800*%
%ADD37O,1.30800X3.50800*%
%ADD38R,1.50000X1.50000*%
D31*
X1651000Y5930900D02*
D03*
X1790700Y4864100D02*
D03*
X2032000Y9563100D02*
D03*
D32*
X1651000Y6184900D02*
D03*
Y6692900D02*
D03*
Y6946900D02*
D03*
Y7200900D02*
D03*
Y7454900D02*
D03*
Y7708900D02*
D03*
Y7962900D02*
D03*
Y8216900D02*
D03*
Y6438900D02*
D03*
X1790700Y4610100D02*
D03*
Y4356100D02*
D03*
Y4102100D02*
D03*
X1778000Y9563100D02*
D03*
X2032000Y9817100D02*
D03*
X1778000D02*
D03*
X2032000Y10071100D02*
D03*
X1778000D02*
D03*
X2743200Y10972800D02*
D03*
Y10718800D02*
D03*
X2489200Y10972800D02*
D03*
X4635500D02*
D03*
Y10718800D02*
D03*
X4381500Y10972800D02*
D03*
Y10718800D02*
D03*
X4127500Y10972800D02*
D03*
Y10718800D02*
D03*
X3873500Y10972800D02*
D03*
Y10718800D02*
D03*
X3619500Y10972800D02*
D03*
Y10718800D02*
D03*
X3365500Y10972800D02*
D03*
D33*
X2166620Y5420360D02*
D03*
X1912620D02*
D03*
X1658620D02*
D03*
D34*
X8000000Y4320000D02*
D03*
Y4820000D02*
D03*
Y6154900D02*
D03*
Y6654900D02*
D03*
X8013700Y7966900D02*
D03*
Y8466900D02*
D03*
X8000000Y10235800D02*
D03*
Y9735800D02*
D03*
D35*
X6800000Y7004900D02*
D03*
X5580000Y5804900D02*
D03*
X6800000D02*
D03*
X7000000Y6404900D02*
D03*
X5580000Y7004900D02*
D03*
Y5170000D02*
D03*
X7000000Y4570000D02*
D03*
X6800000Y3970000D02*
D03*
X5580000D02*
D03*
X6800000Y5170000D02*
D03*
X5580000Y10585800D02*
D03*
X7000000Y9985800D02*
D03*
X6800000Y9385800D02*
D03*
X5580000D02*
D03*
X6800000Y10585800D02*
D03*
X5592700Y8852500D02*
D03*
X7012700Y8252500D02*
D03*
X6812700Y7652500D02*
D03*
X5592700D02*
D03*
X6812700Y8852500D02*
D03*
D36*
X2939200Y4519100D02*
D03*
Y3939100D02*
D03*
D37*
X3419200Y4229100D02*
D03*
D38*
X2489200Y10718800D02*
D03*
X3365500D02*
D03*
%TF.MD5,a01e67e3e63626856824051e719daa5d*%
M02*
