%TF.GenerationSoftware,Altium Limited,Altium Designer,23.9.2 (47)*%
G04 Layer_Color=0*
%FSLAX45Y45*%
%MOMM*%
%TF.SameCoordinates,15915765-FD2E-4A0E-A91D-014651F65676*%
%TF.FilePolarity,Positive*%
%TF.FileFunction,NonPlated,1,4,NPTH,Drill*%
%TF.Part,Single*%
G01*
G75*
G36*
X1595120Y3553049D02*
Y3534911D01*
X1602197Y3499334D01*
X1616078Y3465821D01*
X1636231Y3435660D01*
X1661881Y3410010D01*
X1692042Y3389857D01*
X1725555Y3375975D01*
X1761133Y3368899D01*
X1779270D01*
X1797407D01*
X1832984Y3375975D01*
X1866498Y3389857D01*
X1896659Y3410010D01*
X1922309Y3435660D01*
X1942461Y3465821D01*
X1956343Y3499334D01*
X1963420Y3534911D01*
Y3553049D01*
Y3571186D01*
X1956343Y3606763D01*
X1942461Y3640276D01*
X1922309Y3670437D01*
X1896659Y3696087D01*
X1866498Y3716240D01*
X1832984Y3730122D01*
X1797407Y3737199D01*
X1779270D01*
X1761133D01*
X1725555Y3730122D01*
X1692042Y3716240D01*
X1661881Y3696087D01*
X1636231Y3670437D01*
X1616078Y3640276D01*
X1602197Y3606763D01*
X1595120Y3571186D01*
Y3553049D01*
D01*
D02*
G37*
G36*
X8199120D02*
Y3534911D01*
X8206197Y3499334D01*
X8220078Y3465821D01*
X8240231Y3435660D01*
X8265881Y3410010D01*
X8296042Y3389857D01*
X8329555Y3375975D01*
X8365133Y3368899D01*
X8383270D01*
X8401407D01*
X8436984Y3375975D01*
X8470498Y3389857D01*
X8500659Y3410010D01*
X8526309Y3435660D01*
X8546461Y3465821D01*
X8560343Y3499334D01*
X8567420Y3534911D01*
Y3553049D01*
Y3571186D01*
X8560343Y3606763D01*
X8546461Y3640276D01*
X8526309Y3670437D01*
X8500659Y3696087D01*
X8470498Y3716240D01*
X8436984Y3730122D01*
X8401407Y3737199D01*
X8383270D01*
X8365133D01*
X8329555Y3730122D01*
X8296042Y3716240D01*
X8265881Y3696087D01*
X8240231Y3670437D01*
X8220078Y3640276D01*
X8206197Y3606763D01*
X8199120Y3571186D01*
Y3553049D01*
D01*
D02*
G37*
G36*
Y10919048D02*
Y10900911D01*
X8206197Y10865333D01*
X8220078Y10831820D01*
X8240231Y10801659D01*
X8265881Y10776009D01*
X8296042Y10755856D01*
X8329555Y10741975D01*
X8365133Y10734898D01*
X8383270D01*
X8401407D01*
X8436984Y10741975D01*
X8470498Y10755856D01*
X8500659Y10776009D01*
X8526309Y10801659D01*
X8546461Y10831820D01*
X8560343Y10865333D01*
X8567420Y10900911D01*
Y10919048D01*
Y10937185D01*
X8560343Y10972762D01*
X8546461Y11006276D01*
X8526309Y11036437D01*
X8500659Y11062087D01*
X8470498Y11082239D01*
X8436984Y11096121D01*
X8401407Y11103198D01*
X8383270D01*
X8365133D01*
X8329555Y11096121D01*
X8296042Y11082239D01*
X8265881Y11062087D01*
X8240231Y11036437D01*
X8220078Y11006276D01*
X8206197Y10972762D01*
X8199120Y10937185D01*
Y10919048D01*
D01*
D02*
G37*
G36*
X1779270Y10734898D02*
X1761133D01*
X1725555Y10741975D01*
X1692042Y10755856D01*
X1661881Y10776009D01*
X1636231Y10801659D01*
X1616078Y10831820D01*
X1602197Y10865333D01*
X1595120Y10900911D01*
Y10919048D01*
Y10937185D01*
X1602197Y10972762D01*
X1616078Y11006276D01*
X1636231Y11036437D01*
X1661881Y11062087D01*
X1692042Y11082239D01*
X1725555Y11096121D01*
X1761133Y11103198D01*
X1779270D01*
X1797407D01*
X1832984Y11096121D01*
X1866498Y11082239D01*
X1896659Y11062087D01*
X1922309Y11036437D01*
X1942461Y11006276D01*
X1956343Y10972762D01*
X1963420Y10937185D01*
Y10919048D01*
Y10900911D01*
X1956343Y10865333D01*
X1942461Y10831820D01*
X1922309Y10801659D01*
X1896659Y10776009D01*
X1866498Y10755856D01*
X1832984Y10741975D01*
X1797407Y10734898D01*
X1779270D01*
D01*
D02*
G37*
%TF.MD5,25b39586eb7cd0d8df90f19a7bec06f4*%
M02*
